# xmcd
#
# Track frame offsets: 
#        150
#        20527
#        38884
#        58457
#        78684
#        101408
#        119641
#        141607
#        165571
#        183770
#
# Disc length: 2717 seconds
#
# Revision: 0
# Processed by: cddbd v1.5.2PL0 Copyright (c) Steve Scherf et al.
# Submitted via: ExactAudioCopyFreeDBPlugin 1.0
#
DISCID=8f0a9b0a
DTITLE=Linda Miles - Home Cookin'
DYEAR=2008
DGENRE=Bass
TTITLE0=Home Cookin'
TTITLE1=Right A Wrong
TTITLE2=Just As Easy
TTITLE3=Confection Connection
TTITLE4=I Want Out
TTITLE5=What Else
TTITLE6=Let's Play Away
TTITLE7=It's Not On My Menu
TTITLE8=Bad Case of You
TTITLE9=Go Weigh It Out
EXTD=
EXTT0=
EXTT1=
EXTT2=
EXTT3=
EXTT4=
EXTT5=
EXTT6=
EXTT7=
EXTT8=
EXTT9=
PLAYORDER=
